ISO-10303-21;
HEADER;
/* Generated by software containing ST-Developer
 * from STEP Tools, Inc. (www.steptools.com) 
 */
/* OPTION: using custom renumber hook */

FILE_DESCRIPTION(
/* description */ ('STEP AP242 Edition 2',
'CAx-IF Rec.Pracs.---Representation and Presentation of Product Manufa
cturing Information (PMI)---4.0---2014-10-13',
'CAx-IF Rec.Pracs.---3D Tessellated Geometry---0.4---2014-09-14','2;1',
'CAx-IF Rec.Pracs.---User Defined Attributes---1.5---2016-08-15'),
/* implementation_level */ '2;1');

FILE_NAME(
/* name */ 'case - Part 1',
/* time_stamp */ '2026-08-07T19:40:33Z',
/* author */ (''),
/* organization */ (''),
/* preprocessor_version */ 'ST-DEVELOPER v20',
/* originating_system */ 'ONSHAPE BY PTC INC, 1.219',
/* authorisation */ '  ');

FILE_SCHEMA (('AP242_MANAGED_MODEL_BASED_3D_ENGINEERING_MIM_LF { 1 0 10303 442 3 1 4 }'));
ENDSEC;

DATA;
#10=SHAPE_REPRESENTATION_RELATIONSHIP('','',#467,#11);
#11=ADVANCED_BREP_SHAPE_REPRESENTATION('',(#465),#759);
#12=CIRCLE('',#471,0.005);
#13=CIRCLE('',#472,0.005);
#14=CIRCLE('',#475,0.005);
#15=CIRCLE('',#476,0.005);
#16=CIRCLE('',#479,0.005);
#17=CIRCLE('',#480,0.005);
#18=CIRCLE('',#483,0.00145);
#19=CIRCLE('',#484,0.00145);
#20=CIRCLE('',#486,0.00145);
#21=CIRCLE('',#487,0.00145);
#22=CIRCLE('',#489,0.00145);
#23=CIRCLE('',#490,0.00145);
#24=CIRCLE('',#492,0.00145);
#25=CIRCLE('',#493,0.00145);
#26=CIRCLE('',#495,0.005);
#27=CIRCLE('',#496,0.005);
#28=CYLINDRICAL_SURFACE('',#470,0.005);
#29=CYLINDRICAL_SURFACE('',#474,0.005);
#30=CYLINDRICAL_SURFACE('',#478,0.005);
#31=CYLINDRICAL_SURFACE('',#482,0.00145);
#32=CYLINDRICAL_SURFACE('',#485,0.00145);
#33=CYLINDRICAL_SURFACE('',#488,0.00145);
#34=CYLINDRICAL_SURFACE('',#491,0.00145);
#35=CYLINDRICAL_SURFACE('',#494,0.005);
#36=ORIENTED_EDGE('',*,*,#156,.F.);
#37=ORIENTED_EDGE('',*,*,#157,.F.);
#38=ORIENTED_EDGE('',*,*,#158,.T.);
#39=ORIENTED_EDGE('',*,*,#159,.T.);
#40=ORIENTED_EDGE('',*,*,#160,.T.);
#41=ORIENTED_EDGE('',*,*,#161,.F.);
#42=ORIENTED_EDGE('',*,*,#162,.F.);
#43=ORIENTED_EDGE('',*,*,#157,.T.);
#44=ORIENTED_EDGE('',*,*,#163,.F.);
#45=ORIENTED_EDGE('',*,*,#164,.F.);
#46=ORIENTED_EDGE('',*,*,#165,.T.);
#47=ORIENTED_EDGE('',*,*,#161,.T.);
#48=ORIENTED_EDGE('',*,*,#166,.T.);
#49=ORIENTED_EDGE('',*,*,#167,.F.);
#50=ORIENTED_EDGE('',*,*,#168,.F.);
#51=ORIENTED_EDGE('',*,*,#164,.T.);
#52=ORIENTED_EDGE('',*,*,#169,.F.);
#53=ORIENTED_EDGE('',*,*,#170,.T.);
#54=ORIENTED_EDGE('',*,*,#171,.T.);
#55=ORIENTED_EDGE('',*,*,#172,.F.);
#56=ORIENTED_EDGE('',*,*,#173,.F.);
#57=ORIENTED_EDGE('',*,*,#174,.T.);
#58=ORIENTED_EDGE('',*,*,#167,.T.);
#59=ORIENTED_EDGE('',*,*,#175,.F.);
#60=ORIENTED_EDGE('',*,*,#176,.T.);
#61=ORIENTED_EDGE('',*,*,#177,.F.);
#62=ORIENTED_EDGE('',*,*,#178,.F.);
#63=ORIENTED_EDGE('',*,*,#173,.T.);
#64=ORIENTED_EDGE('',*,*,#179,.F.);
#65=ORIENTED_EDGE('',*,*,#180,.F.);
#66=ORIENTED_EDGE('',*,*,#181,.T.);
#67=ORIENTED_EDGE('',*,*,#177,.T.);
#68=ORIENTED_EDGE('',*,*,#182,.F.);
#69=ORIENTED_EDGE('',*,*,#183,.T.);
#70=ORIENTED_EDGE('',*,*,#184,.F.);
#71=ORIENTED_EDGE('',*,*,#185,.T.);
#72=ORIENTED_EDGE('',*,*,#186,.F.);
#73=ORIENTED_EDGE('',*,*,#187,.T.);
#74=ORIENTED_EDGE('',*,*,#188,.F.);
#75=ORIENTED_EDGE('',*,*,#189,.T.);
#76=ORIENTED_EDGE('',*,*,#190,.T.);
#77=ORIENTED_EDGE('',*,*,#159,.F.);
#78=ORIENTED_EDGE('',*,*,#191,.F.);
#79=ORIENTED_EDGE('',*,*,#180,.T.);
#80=ORIENTED_EDGE('',*,*,#192,.F.);
#81=ORIENTED_EDGE('',*,*,#193,.T.);
#82=ORIENTED_EDGE('',*,*,#175,.T.);
#83=ORIENTED_EDGE('',*,*,#166,.F.);
#84=ORIENTED_EDGE('',*,*,#163,.T.);
#85=ORIENTED_EDGE('',*,*,#160,.F.);
#86=ORIENTED_EDGE('',*,*,#156,.T.);
#87=ORIENTED_EDGE('',*,*,#190,.F.);
#88=ORIENTED_EDGE('',*,*,#179,.T.);
#89=ORIENTED_EDGE('',*,*,#176,.F.);
#90=ORIENTED_EDGE('',*,*,#172,.T.);
#91=ORIENTED_EDGE('',*,*,#194,.F.);
#92=ORIENTED_EDGE('',*,*,#188,.T.);
#93=ORIENTED_EDGE('',*,*,#186,.T.);
#94=ORIENTED_EDGE('',*,*,#184,.T.);
#95=ORIENTED_EDGE('',*,*,#182,.T.);
#96=ORIENTED_EDGE('',*,*,#195,.F.);
#97=ORIENTED_EDGE('',*,*,#196,.F.);
#98=ORIENTED_EDGE('',*,*,#197,.F.);
#99=ORIENTED_EDGE('',*,*,#198,.T.);
#100=ORIENTED_EDGE('',*,*,#199,.F.);
#101=ORIENTED_EDGE('',*,*,#200,.F.);
#102=ORIENTED_EDGE('',*,*,#201,.F.);
#103=ORIENTED_EDGE('',*,*,#196,.T.);
#104=ORIENTED_EDGE('',*,*,#202,.F.);
#105=ORIENTED_EDGE('',*,*,#203,.T.);
#106=ORIENTED_EDGE('',*,*,#204,.T.);
#107=ORIENTED_EDGE('',*,*,#205,.F.);
#108=ORIENTED_EDGE('',*,*,#206,.F.);
#109=ORIENTED_EDGE('',*,*,#207,.F.);
#110=ORIENTED_EDGE('',*,*,#208,.F.);
#111=ORIENTED_EDGE('',*,*,#200,.T.);
#112=ORIENTED_EDGE('',*,*,#209,.F.);
#113=ORIENTED_EDGE('',*,*,#198,.F.);
#114=ORIENTED_EDGE('',*,*,#210,.F.);
#115=ORIENTED_EDGE('',*,*,#207,.T.);
#116=ORIENTED_EDGE('',*,*,#189,.F.);
#117=ORIENTED_EDGE('',*,*,#187,.F.);
#118=ORIENTED_EDGE('',*,*,#185,.F.);
#119=ORIENTED_EDGE('',*,*,#183,.F.);
#120=ORIENTED_EDGE('',*,*,#158,.F.);
#121=ORIENTED_EDGE('',*,*,#162,.T.);
#122=ORIENTED_EDGE('',*,*,#165,.F.);
#123=ORIENTED_EDGE('',*,*,#168,.T.);
#124=ORIENTED_EDGE('',*,*,#174,.F.);
#125=ORIENTED_EDGE('',*,*,#178,.T.);
#126=ORIENTED_EDGE('',*,*,#181,.F.);
#127=ORIENTED_EDGE('',*,*,#191,.T.);
#128=ORIENTED_EDGE('',*,*,#197,.T.);
#129=ORIENTED_EDGE('',*,*,#201,.T.);
#130=ORIENTED_EDGE('',*,*,#208,.T.);
#131=ORIENTED_EDGE('',*,*,#210,.T.);
#132=ORIENTED_EDGE('',*,*,#199,.T.);
#133=ORIENTED_EDGE('',*,*,#195,.T.);
#134=ORIENTED_EDGE('',*,*,#209,.T.);
#135=ORIENTED_EDGE('',*,*,#206,.T.);
#136=ORIENTED_EDGE('',*,*,#211,.T.);
#137=ORIENTED_EDGE('',*,*,#202,.T.);
#138=ORIENTED_EDGE('',*,*,#212,.F.);
#139=ORIENTED_EDGE('',*,*,#192,.T.);
#140=ORIENTED_EDGE('',*,*,#213,.T.);
#141=ORIENTED_EDGE('',*,*,#211,.F.);
#142=ORIENTED_EDGE('',*,*,#194,.T.);
#143=ORIENTED_EDGE('',*,*,#171,.F.);
#144=ORIENTED_EDGE('',*,*,#214,.F.);
#145=ORIENTED_EDGE('',*,*,#203,.F.);
#146=ORIENTED_EDGE('',*,*,#213,.F.);
#147=ORIENTED_EDGE('',*,*,#214,.T.);
#148=ORIENTED_EDGE('',*,*,#170,.F.);
#149=ORIENTED_EDGE('',*,*,#215,.F.);
#150=ORIENTED_EDGE('',*,*,#204,.F.);
#151=ORIENTED_EDGE('',*,*,#212,.T.);
#152=ORIENTED_EDGE('',*,*,#205,.T.);
#153=ORIENTED_EDGE('',*,*,#215,.T.);
#154=ORIENTED_EDGE('',*,*,#169,.T.);
#155=ORIENTED_EDGE('',*,*,#193,.F.);
#156=EDGE_CURVE('',#216,#217,#258,.T.);
#157=EDGE_CURVE('',#218,#216,#259,.T.);
#158=EDGE_CURVE('',#218,#219,#260,.T.);
#159=EDGE_CURVE('',#219,#217,#261,.T.);
#160=EDGE_CURVE('',#216,#220,#12,.T.);
#161=EDGE_CURVE('',#221,#220,#262,.T.);
#162=EDGE_CURVE('',#218,#221,#13,.T.);
#163=EDGE_CURVE('',#222,#220,#263,.T.);
#164=EDGE_CURVE('',#223,#222,#264,.T.);
#165=EDGE_CURVE('',#223,#221,#265,.T.);
#166=EDGE_CURVE('',#222,#224,#14,.T.);
#167=EDGE_CURVE('',#225,#224,#266,.T.);
#168=EDGE_CURVE('',#223,#225,#15,.T.);
#169=EDGE_CURVE('',#226,#227,#267,.T.);
#170=EDGE_CURVE('',#226,#228,#268,.T.);
#171=EDGE_CURVE('',#228,#229,#269,.T.);
#172=EDGE_CURVE('',#230,#229,#270,.T.);
#173=EDGE_CURVE('',#231,#230,#271,.T.);
#174=EDGE_CURVE('',#231,#225,#272,.T.);
#175=EDGE_CURVE('',#227,#224,#273,.T.);
#176=EDGE_CURVE('',#230,#232,#16,.T.);
#177=EDGE_CURVE('',#233,#232,#274,.T.);
#178=EDGE_CURVE('',#231,#233,#17,.T.);
#179=EDGE_CURVE('',#234,#232,#275,.T.);
#180=EDGE_CURVE('',#235,#234,#276,.T.);
#181=EDGE_CURVE('',#235,#233,#277,.T.);
#182=EDGE_CURVE('',#236,#236,#18,.T.);
#183=EDGE_CURVE('',#237,#237,#19,.T.);
#184=EDGE_CURVE('',#238,#238,#20,.T.);
#185=EDGE_CURVE('',#239,#239,#21,.T.);
#186=EDGE_CURVE('',#240,#240,#22,.T.);
#187=EDGE_CURVE('',#241,#241,#23,.T.);
#188=EDGE_CURVE('',#242,#242,#24,.T.);
#189=EDGE_CURVE('',#243,#243,#25,.T.);
#190=EDGE_CURVE('',#234,#217,#26,.T.);
#191=EDGE_CURVE('',#235,#219,#27,.T.);
#192=EDGE_CURVE('',#244,#245,#278,.T.);
#193=EDGE_CURVE('',#244,#227,#279,.T.);
#194=EDGE_CURVE('',#245,#229,#280,.T.);
#195=EDGE_CURVE('',#246,#247,#281,.T.);
#196=EDGE_CURVE('',#248,#246,#282,.T.);
#197=EDGE_CURVE('',#249,#248,#283,.T.);
#198=EDGE_CURVE('',#249,#247,#284,.T.);
#199=EDGE_CURVE('',#250,#246,#285,.T.);
#200=EDGE_CURVE('',#251,#250,#286,.T.);
#201=EDGE_CURVE('',#248,#251,#287,.T.);
#202=EDGE_CURVE('',#252,#250,#288,.T.);
#203=EDGE_CURVE('',#252,#253,#289,.T.);
#204=EDGE_CURVE('',#253,#254,#290,.T.);
#205=EDGE_CURVE('',#255,#254,#291,.T.);
#206=EDGE_CURVE('',#256,#255,#292,.T.);
#207=EDGE_CURVE('',#257,#256,#293,.T.);
#208=EDGE_CURVE('',#251,#257,#294,.T.);
#209=EDGE_CURVE('',#247,#256,#295,.T.);
#210=EDGE_CURVE('',#257,#249,#296,.T.);
#211=EDGE_CURVE('',#255,#252,#297,.T.);
#212=EDGE_CURVE('',#244,#255,#298,.T.);
#213=EDGE_CURVE('',#245,#252,#299,.T.);
#214=EDGE_CURVE('',#253,#228,#300,.T.);
#215=EDGE_CURVE('',#254,#226,#301,.T.);
#216=VERTEX_POINT('',#635);
#217=VERTEX_POINT('',#636);
#218=VERTEX_POINT('',#638);
#219=VERTEX_POINT('',#640);
#220=VERTEX_POINT('',#644);
#221=VERTEX_POINT('',#646);
#222=VERTEX_POINT('',#650);
#223=VERTEX_POINT('',#652);
#224=VERTEX_POINT('',#656);
#225=VERTEX_POINT('',#658);
#226=VERTEX_POINT('',#662);
#227=VERTEX_POINT('',#663);
#228=VERTEX_POINT('',#665);
#229=VERTEX_POINT('',#667);
#230=VERTEX_POINT('',#669);
#231=VERTEX_POINT('',#671);
#232=VERTEX_POINT('',#676);
#233=VERTEX_POINT('',#678);
#234=VERTEX_POINT('',#682);
#235=VERTEX_POINT('',#684);
#236=VERTEX_POINT('',#688);
#237=VERTEX_POINT('',#690);
#238=VERTEX_POINT('',#693);
#239=VERTEX_POINT('',#695);
#240=VERTEX_POINT('',#698);
#241=VERTEX_POINT('',#700);
#242=VERTEX_POINT('',#703);
#243=VERTEX_POINT('',#705);
#244=VERTEX_POINT('',#711);
#245=VERTEX_POINT('',#712);
#246=VERTEX_POINT('',#717);
#247=VERTEX_POINT('',#718);
#248=VERTEX_POINT('',#720);
#249=VERTEX_POINT('',#722);
#250=VERTEX_POINT('',#726);
#251=VERTEX_POINT('',#728);
#252=VERTEX_POINT('',#732);
#253=VERTEX_POINT('',#734);
#254=VERTEX_POINT('',#736);
#255=VERTEX_POINT('',#738);
#256=VERTEX_POINT('',#740);
#257=VERTEX_POINT('',#742);
#258=LINE('',#634,#302);
#259=LINE('',#637,#303);
#260=LINE('',#639,#304);
#261=LINE('',#641,#305);
#262=LINE('',#645,#306);
#263=LINE('',#649,#307);
#264=LINE('',#651,#308);
#265=LINE('',#653,#309);
#266=LINE('',#657,#310);
#267=LINE('',#661,#311);
#268=LINE('',#664,#312);
#269=LINE('',#666,#313);
#270=LINE('',#668,#314);
#271=LINE('',#670,#315);
#272=LINE('',#672,#316);
#273=LINE('',#673,#317);
#274=LINE('',#677,#318);
#275=LINE('',#681,#319);
#276=LINE('',#683,#320);
#277=LINE('',#685,#321);
#278=LINE('',#710,#322);
#279=LINE('',#713,#323);
#280=LINE('',#714,#324);
#281=LINE('',#716,#325);
#282=LINE('',#719,#326);
#283=LINE('',#721,#327);
#284=LINE('',#723,#328);
#285=LINE('',#725,#329);
#286=LINE('',#727,#330);
#287=LINE('',#729,#331);
#288=LINE('',#731,#332);
#289=LINE('',#733,#333);
#290=LINE('',#735,#334);
#291=LINE('',#737,#335);
#292=LINE('',#739,#336);
#293=LINE('',#741,#337);
#294=LINE('',#743,#338);
#295=LINE('',#745,#339);
#296=LINE('',#746,#340);
#297=LINE('',#749,#341);
#298=LINE('',#751,#342);
#299=LINE('',#752,#343);
#300=LINE('',#754,#344);
#301=LINE('',#756,#345);
#302=VECTOR('',#512,1.);
#303=VECTOR('',#513,1.);
#304=VECTOR('',#514,1.);
#305=VECTOR('',#515,1.);
#306=VECTOR('',#520,1.);
#307=VECTOR('',#525,1.);
#308=VECTOR('',#526,1.);
#309=VECTOR('',#527,1.);
#310=VECTOR('',#532,1.);
#311=VECTOR('',#537,1.);
#312=VECTOR('',#538,1.);
#313=VECTOR('',#539,1.);
#314=VECTOR('',#540,1.);
#315=VECTOR('',#541,1.);
#316=VECTOR('',#542,1.);
#317=VECTOR('',#543,1.);
#318=VECTOR('',#548,1.);
#319=VECTOR('',#553,1.);
#320=VECTOR('',#554,1.);
#321=VECTOR('',#555,1.);
#322=VECTOR('',#588,1.);
#323=VECTOR('',#589,1.);
#324=VECTOR('',#590,1.);
#325=VECTOR('',#593,1.);
#326=VECTOR('',#594,1.);
#327=VECTOR('',#595,1.);
#328=VECTOR('',#596,1.);
#329=VECTOR('',#599,1.);
#330=VECTOR('',#600,1.);
#331=VECTOR('',#601,1.);
#332=VECTOR('',#604,1.);
#333=VECTOR('',#605,1.);
#334=VECTOR('',#606,1.);
#335=VECTOR('',#607,1.);
#336=VECTOR('',#608,1.);
#337=VECTOR('',#609,1.);
#338=VECTOR('',#610,1.);
#339=VECTOR('',#613,1.);
#340=VECTOR('',#614,1.);
#341=VECTOR('',#619,1.);
#342=VECTOR('',#622,1.);
#343=VECTOR('',#623,1.);
#344=VECTOR('',#626,1.);
#345=VECTOR('',#629,1.);
#346=EDGE_LOOP('',(#36,#37,#38,#39));
#347=EDGE_LOOP('',(#40,#41,#42,#43));
#348=EDGE_LOOP('',(#44,#45,#46,#47));
#349=EDGE_LOOP('',(#48,#49,#50,#51));
#350=EDGE_LOOP('',(#52,#53,#54,#55,#56,#57,#58,#59));
#351=EDGE_LOOP('',(#60,#61,#62,#63));
#352=EDGE_LOOP('',(#64,#65,#66,#67));
#353=EDGE_LOOP('',(#68));
#354=EDGE_LOOP('',(#69));
#355=EDGE_LOOP('',(#70));
#356=EDGE_LOOP('',(#71));
#357=EDGE_LOOP('',(#72));
#358=EDGE_LOOP('',(#73));
#359=EDGE_LOOP('',(#74));
#360=EDGE_LOOP('',(#75));
#361=EDGE_LOOP('',(#76,#77,#78,#79));
#362=EDGE_LOOP('',(#80,#81,#82,#83,#84,#85,#86,#87,#88,#89,#90,#91));
#363=EDGE_LOOP('',(#92));
#364=EDGE_LOOP('',(#93));
#365=EDGE_LOOP('',(#94));
#366=EDGE_LOOP('',(#95));
#367=EDGE_LOOP('',(#96,#97,#98,#99));
#368=EDGE_LOOP('',(#100,#101,#102,#103));
#369=EDGE_LOOP('',(#104,#105,#106,#107,#108,#109,#110,#111));
#370=EDGE_LOOP('',(#112,#113,#114,#115));
#371=EDGE_LOOP('',(#116));
#372=EDGE_LOOP('',(#117));
#373=EDGE_LOOP('',(#118));
#374=EDGE_LOOP('',(#119));
#375=EDGE_LOOP('',(#120,#121,#122,#123,#124,#125,#126,#127));
#376=EDGE_LOOP('',(#128,#129,#130,#131));
#377=EDGE_LOOP('',(#132,#133,#134,#135,#136,#137));
#378=EDGE_LOOP('',(#138,#139,#140,#141));
#379=EDGE_LOOP('',(#142,#143,#144,#145,#146));
#380=EDGE_LOOP('',(#147,#148,#149,#150));
#381=EDGE_LOOP('',(#151,#152,#153,#154,#155));
#382=FACE_BOUND('',#346,.T.);
#383=FACE_BOUND('',#347,.T.);
#384=FACE_BOUND('',#348,.T.);
#385=FACE_BOUND('',#349,.T.);
#386=FACE_BOUND('',#350,.T.);
#387=FACE_BOUND('',#351,.T.);
#388=FACE_BOUND('',#352,.T.);
#389=FACE_BOUND('',#353,.T.);
#390=FACE_BOUND('',#354,.T.);
#391=FACE_BOUND('',#355,.T.);
#392=FACE_BOUND('',#356,.T.);
#393=FACE_BOUND('',#357,.T.);
#394=FACE_BOUND('',#358,.T.);
#395=FACE_BOUND('',#359,.T.);
#396=FACE_BOUND('',#360,.T.);
#397=FACE_BOUND('',#361,.T.);
#398=FACE_BOUND('',#362,.T.);
#399=FACE_BOUND('',#363,.T.);
#400=FACE_BOUND('',#364,.T.);
#401=FACE_BOUND('',#365,.T.);
#402=FACE_BOUND('',#366,.T.);
#403=FACE_BOUND('',#367,.T.);
#404=FACE_BOUND('',#368,.T.);
#405=FACE_BOUND('',#369,.T.);
#406=FACE_BOUND('',#370,.T.);
#407=FACE_BOUND('',#371,.T.);
#408=FACE_BOUND('',#372,.T.);
#409=FACE_BOUND('',#373,.T.);
#410=FACE_BOUND('',#374,.T.);
#411=FACE_BOUND('',#375,.T.);
#412=FACE_BOUND('',#376,.T.);
#413=FACE_BOUND('',#377,.T.);
#414=FACE_BOUND('',#378,.T.);
#415=FACE_BOUND('',#379,.T.);
#416=FACE_BOUND('',#380,.T.);
#417=FACE_BOUND('',#381,.T.);
#418=PLANE('',#469);
#419=PLANE('',#473);
#420=PLANE('',#477);
#421=PLANE('',#481);
#422=PLANE('',#497);
#423=PLANE('',#498);
#424=PLANE('',#499);
#425=PLANE('',#500);
#426=PLANE('',#501);
#427=PLANE('',#502);
#428=PLANE('',#503);
#429=PLANE('',#504);
#430=PLANE('',#505);
#431=PLANE('',#506);
#432=PLANE('',#507);
#433=ADVANCED_FACE('',(#382),#418,.T.);
#434=ADVANCED_FACE('',(#383),#28,.T.);
#435=ADVANCED_FACE('',(#384),#419,.T.);
#436=ADVANCED_FACE('',(#385),#29,.T.);
#437=ADVANCED_FACE('',(#386),#420,.T.);
#438=ADVANCED_FACE('',(#387),#30,.T.);
#439=ADVANCED_FACE('',(#388),#421,.T.);
#440=ADVANCED_FACE('',(#389,#390),#31,.F.);
#441=ADVANCED_FACE('',(#391,#392),#32,.F.);
#442=ADVANCED_FACE('',(#393,#394),#33,.F.);
#443=ADVANCED_FACE('',(#395,#396),#34,.F.);
#444=ADVANCED_FACE('',(#397),#35,.T.);
#445=ADVANCED_FACE('',(#398,#399,#400,#401,#402),#422,.F.);
#446=ADVANCED_FACE('',(#403),#423,.F.);
#447=ADVANCED_FACE('',(#404),#424,.F.);
#448=ADVANCED_FACE('',(#405),#425,.F.);
#449=ADVANCED_FACE('',(#406),#426,.F.);
#450=ADVANCED_FACE('',(#407,#408,#409,#410,#411,#412),#427,.T.);
#451=ADVANCED_FACE('',(#413),#428,.T.);
#452=ADVANCED_FACE('',(#414),#429,.T.);
#453=ADVANCED_FACE('',(#415),#430,.T.);
#454=ADVANCED_FACE('',(#416),#431,.T.);
#455=ADVANCED_FACE('',(#417),#432,.F.);
#456=CLOSED_SHELL('',(#433,#434,#435,#436,#437,#438,#439,#440,#441,#442,
#443,#444,#445,#446,#447,#448,#449,#450,#451,#452,#453,#454,#455));
#457=STYLED_ITEM('',(#458),#465);
#458=PRESENTATION_STYLE_ASSIGNMENT((#459));
#459=SURFACE_STYLE_USAGE(.BOTH.,#460);
#460=SURFACE_SIDE_STYLE('',(#461));
#461=SURFACE_STYLE_FILL_AREA(#462);
#462=FILL_AREA_STYLE('',(#463));
#463=FILL_AREA_STYLE_COLOUR('',#464);
#464=COLOUR_RGB('',0.498039215686275,0.498039215686275,0.498039215686275);
#465=MANIFOLD_SOLID_BREP('Part 1',#456);
#466=SHAPE_DEFINITION_REPRESENTATION(#764,#467);
#467=SHAPE_REPRESENTATION('Part 1',(#468),#759);
#468=AXIS2_PLACEMENT_3D('',#632,#508,#509);
#469=AXIS2_PLACEMENT_3D('',#633,#510,#511);
#470=AXIS2_PLACEMENT_3D('',#642,#516,#517);
#471=AXIS2_PLACEMENT_3D('',#643,#518,#519);
#472=AXIS2_PLACEMENT_3D('',#647,#521,#522);
#473=AXIS2_PLACEMENT_3D('',#648,#523,#524);
#474=AXIS2_PLACEMENT_3D('',#654,#528,#529);
#475=AXIS2_PLACEMENT_3D('',#655,#530,#531);
#476=AXIS2_PLACEMENT_3D('',#659,#533,#534);
#477=AXIS2_PLACEMENT_3D('',#660,#535,#536);
#478=AXIS2_PLACEMENT_3D('',#674,#544,#545);
#479=AXIS2_PLACEMENT_3D('',#675,#546,#547);
#480=AXIS2_PLACEMENT_3D('',#679,#549,#550);
#481=AXIS2_PLACEMENT_3D('',#680,#551,#552);
#482=AXIS2_PLACEMENT_3D('',#686,#556,#557);
#483=AXIS2_PLACEMENT_3D('',#687,#558,#559);
#484=AXIS2_PLACEMENT_3D('',#689,#560,#561);
#485=AXIS2_PLACEMENT_3D('',#691,#562,#563);
#486=AXIS2_PLACEMENT_3D('',#692,#564,#565);
#487=AXIS2_PLACEMENT_3D('',#694,#566,#567);
#488=AXIS2_PLACEMENT_3D('',#696,#568,#569);
#489=AXIS2_PLACEMENT_3D('',#697,#570,#571);
#490=AXIS2_PLACEMENT_3D('',#699,#572,#573);
#491=AXIS2_PLACEMENT_3D('',#701,#574,#575);
#492=AXIS2_PLACEMENT_3D('',#702,#576,#577);
#493=AXIS2_PLACEMENT_3D('',#704,#578,#579);
#494=AXIS2_PLACEMENT_3D('',#706,#580,#581);
#495=AXIS2_PLACEMENT_3D('',#707,#582,#583);
#496=AXIS2_PLACEMENT_3D('',#708,#584,#585);
#497=AXIS2_PLACEMENT_3D('',#709,#586,#587);
#498=AXIS2_PLACEMENT_3D('',#715,#591,#592);
#499=AXIS2_PLACEMENT_3D('',#724,#597,#598);
#500=AXIS2_PLACEMENT_3D('',#730,#602,#603);
#501=AXIS2_PLACEMENT_3D('',#744,#611,#612);
#502=AXIS2_PLACEMENT_3D('',#747,#615,#616);
#503=AXIS2_PLACEMENT_3D('',#748,#617,#618);
#504=AXIS2_PLACEMENT_3D('',#750,#620,#621);
#505=AXIS2_PLACEMENT_3D('',#753,#624,#625);
#506=AXIS2_PLACEMENT_3D('',#755,#627,#628);
#507=AXIS2_PLACEMENT_3D('',#757,#630,#631);
#508=DIRECTION('',(0.,0.,1.));
#509=DIRECTION('',(1.,0.,0.));
#510=DIRECTION('',(1.,0.,0.));
#511=DIRECTION('',(0.,0.,-1.));
#512=DIRECTION('',(0.,-1.,0.));
#513=DIRECTION('',(0.,0.,-1.));
#514=DIRECTION('',(0.,-1.,0.));
#515=DIRECTION('',(0.,0.,-1.));
#516=DIRECTION('',(0.,0.,-1.));
#517=DIRECTION('',(-1.,0.,0.));
#518=DIRECTION('',(0.,0.,1.));
#519=DIRECTION('',(1.,0.,0.));
#520=DIRECTION('',(0.,0.,-1.));
#521=DIRECTION('',(0.,0.,1.));
#522=DIRECTION('',(1.,0.,0.));
#523=DIRECTION('',(0.,1.,0.));
#524=DIRECTION('',(0.,0.,1.));
#525=DIRECTION('',(1.,0.,0.));
#526=DIRECTION('',(0.,0.,-1.));
#527=DIRECTION('',(1.,0.,0.));
#528=DIRECTION('',(0.,0.,-1.));
#529=DIRECTION('',(-1.,0.,0.));
#530=DIRECTION('',(0.,0.,1.));
#531=DIRECTION('',(1.,0.,0.));
#532=DIRECTION('',(0.,0.,-1.));
#533=DIRECTION('',(0.,0.,1.));
#534=DIRECTION('',(1.,0.,0.));
#535=DIRECTION('',(-1.,0.,0.));
#536=DIRECTION('',(0.,0.,1.));
#537=DIRECTION('',(0.,0.,-1.));
#538=DIRECTION('',(0.,-1.,2.89120579329468E-16));
#539=DIRECTION('',(0.,0.,-1.));
#540=DIRECTION('',(0.,1.,0.));
#541=DIRECTION('',(0.,0.,-1.));
#542=DIRECTION('',(0.,1.,0.));
#543=DIRECTION('',(0.,1.,0.));
#544=DIRECTION('',(0.,0.,-1.));
#545=DIRECTION('',(-1.,0.,0.));
#546=DIRECTION('',(0.,0.,1.));
#547=DIRECTION('',(1.,0.,0.));
#548=DIRECTION('',(0.,0.,-1.));
#549=DIRECTION('',(0.,0.,1.));
#550=DIRECTION('',(1.,0.,0.));
#551=DIRECTION('',(0.,-1.,0.));
#552=DIRECTION('',(0.,0.,-1.));
#553=DIRECTION('',(-1.,0.,0.));
#554=DIRECTION('',(0.,0.,-1.));
#555=DIRECTION('',(-1.,0.,0.));
#556=DIRECTION('',(0.,0.,-1.));
#557=DIRECTION('',(-1.,0.,0.));
#558=DIRECTION('',(0.,0.,1.));
#559=DIRECTION('',(1.,0.,0.));
#560=DIRECTION('',(0.,0.,1.));
#561=DIRECTION('',(1.,0.,0.));
#562=DIRECTION('',(0.,0.,-1.));
#563=DIRECTION('',(-1.,0.,0.));
#564=DIRECTION('',(0.,0.,1.));
#565=DIRECTION('',(1.,0.,0.));
#566=DIRECTION('',(0.,0.,1.));
#567=DIRECTION('',(1.,0.,0.));
#568=DIRECTION('',(0.,0.,-1.));
#569=DIRECTION('',(-1.,0.,0.));
#570=DIRECTION('',(0.,0.,1.));
#571=DIRECTION('',(1.,0.,0.));
#572=DIRECTION('',(0.,0.,1.));
#573=DIRECTION('',(1.,0.,0.));
#574=DIRECTION('',(0.,0.,-1.));
#575=DIRECTION('',(-1.,0.,0.));
#576=DIRECTION('',(0.,0.,1.));
#577=DIRECTION('',(1.,0.,0.));
#578=DIRECTION('',(0.,0.,1.));
#579=DIRECTION('',(1.,0.,0.));
#580=DIRECTION('',(0.,0.,-1.));
#581=DIRECTION('',(-1.,0.,0.));
#582=DIRECTION('',(0.,0.,1.));
#583=DIRECTION('',(1.,0.,0.));
#584=DIRECTION('',(0.,0.,1.));
#585=DIRECTION('',(1.,0.,0.));
#586=DIRECTION('',(0.,0.,1.));
#587=DIRECTION('',(1.,0.,0.));
#588=DIRECTION('',(0.,-1.,0.));
#589=DIRECTION('',(-1.,0.,0.));
#590=DIRECTION('',(-1.,0.,0.));
#591=DIRECTION('',(1.,0.,0.));
#592=DIRECTION('',(0.,0.,-1.));
#593=DIRECTION('',(0.,1.,0.));
#594=DIRECTION('',(0.,0.,-1.));
#595=DIRECTION('',(0.,-1.,0.));
#596=DIRECTION('',(0.,0.,-1.));
#597=DIRECTION('',(0.,-1.,0.));
#598=DIRECTION('',(0.,0.,-1.));
#599=DIRECTION('',(1.,0.,0.));
#600=DIRECTION('',(0.,0.,-1.));
#601=DIRECTION('',(-1.,0.,0.));
#602=DIRECTION('',(-1.,0.,0.));
#603=DIRECTION('',(0.,0.,1.));
#604=DIRECTION('',(0.,-1.,0.));
#605=DIRECTION('',(0.,0.,1.));
#606=DIRECTION('',(0.,1.,-2.89120579329468E-16));
#607=DIRECTION('',(0.,0.,1.));
#608=DIRECTION('',(0.,-1.,0.));
#609=DIRECTION('',(0.,0.,-1.));
#610=DIRECTION('',(0.,1.,0.));
#611=DIRECTION('',(0.,1.,0.));
#612=DIRECTION('',(0.,0.,1.));
#613=DIRECTION('',(-1.,0.,0.));
#614=DIRECTION('',(1.,0.,0.));
#615=DIRECTION('',(0.,0.,1.));
#616=DIRECTION('',(1.,0.,0.));
#617=DIRECTION('',(0.,0.,1.));
#618=DIRECTION('',(1.,0.,0.));
#619=DIRECTION('',(0.,-1.,0.));
#620=DIRECTION('',(-1.,0.,0.));
#621=DIRECTION('',(0.,0.,1.));
#622=DIRECTION('',(0.,0.,1.));
#623=DIRECTION('',(0.,0.,1.));
#624=DIRECTION('',(0.,1.,0.));
#625=DIRECTION('',(0.,0.,1.));
#626=DIRECTION('',(-1.,0.,0.));
#627=DIRECTION('',(0.,-2.89120579329468E-16,-1.));
#628=DIRECTION('',(0.,1.,-2.89120579329468E-16));
#629=DIRECTION('',(-1.,0.,0.));
#630=DIRECTION('',(0.,1.,0.));
#631=DIRECTION('',(0.,0.,1.));
#632=CARTESIAN_POINT('',(0.,0.,0.));
#633=CARTESIAN_POINT('',(0.0411034118504013,-0.000239761960332294,0.003));
#634=CARTESIAN_POINT('',(0.0411034118504013,-0.000239761960332294,0.));
#635=CARTESIAN_POINT('',(0.0411034118504013,0.0440046130396677,0.));
#636=CARTESIAN_POINT('',(0.0411034118504013,-0.0444841369603323,0.));
#637=CARTESIAN_POINT('',(0.0411034118504013,0.0440046130396677,0.003));
#638=CARTESIAN_POINT('',(0.0411034118504013,0.0440046130396677,0.013));
#639=CARTESIAN_POINT('',(0.0411034118504013,-0.000239761960332294,0.013));
#640=CARTESIAN_POINT('',(0.0411034118504013,-0.0444841369603323,0.013));
#641=CARTESIAN_POINT('',(0.0411034118504013,-0.0444841369603323,0.003));
#642=CARTESIAN_POINT('',(0.0361034118504013,0.0440046130396677,0.003));
#643=CARTESIAN_POINT('',(0.0361034118504013,0.0440046130396677,0.));
#644=CARTESIAN_POINT('',(0.0361034118504013,0.0490046130396677,0.));
#645=CARTESIAN_POINT('',(0.0361034118504013,0.0490046130396677,0.003));
#646=CARTESIAN_POINT('',(0.0361034118504013,0.0490046130396677,0.013));
#647=CARTESIAN_POINT('',(0.0361034118504013,0.0440046130396677,0.013));
#648=CARTESIAN_POINT('',(-5.28381495987045E-5,0.0490046130396677,0.003));
#649=CARTESIAN_POINT('',(-5.28381495987045E-5,0.0490046130396677,0.));
#650=CARTESIAN_POINT('',(-0.0362090881495987,0.0490046130396677,0.));
#651=CARTESIAN_POINT('',(-0.0362090881495987,0.0490046130396677,0.003));
#652=CARTESIAN_POINT('',(-0.0362090881495987,0.0490046130396677,0.013));
#653=CARTESIAN_POINT('',(-5.28381495987045E-5,0.0490046130396677,0.013));
#654=CARTESIAN_POINT('',(-0.0362090881495987,0.0440046130396677,0.003));
#655=CARTESIAN_POINT('',(-0.0362090881495987,0.0440046130396677,0.));
#656=CARTESIAN_POINT('',(-0.0412090881495987,0.0440046130396677,0.));
#657=CARTESIAN_POINT('',(-0.0412090881495987,0.0440046130396677,0.003));
#658=CARTESIAN_POINT('',(-0.0412090881495987,0.0440046130396677,0.013));
#659=CARTESIAN_POINT('',(-0.0362090881495987,0.0440046130396677,0.013));
#660=CARTESIAN_POINT('',(-0.0412090881495987,-0.000239761960332309,0.003));
#661=CARTESIAN_POINT('',(-0.0412090881495987,0.0335046130396677,0.004));
#662=CARTESIAN_POINT('',(-0.0412090881495987,0.0335046130396677,0.008));
#663=CARTESIAN_POINT('',(-0.0412090881495987,0.0335046130396677,0.));
#664=CARTESIAN_POINT('',(-0.0412090881495987,0.0275046130396677,0.008));
#665=CARTESIAN_POINT('',(-0.0412090881495987,0.0215046130396677,0.008));
#666=CARTESIAN_POINT('',(-0.0412090881495987,0.0215046130396677,0.004));
#667=CARTESIAN_POINT('',(-0.0412090881495987,0.0215046130396677,0.));
#668=CARTESIAN_POINT('',(-0.0412090881495987,-0.000239761960332309,0.));
#669=CARTESIAN_POINT('',(-0.0412090881495987,-0.0444841369603323,0.));
#670=CARTESIAN_POINT('',(-0.0412090881495987,-0.0444841369603323,0.003));
#671=CARTESIAN_POINT('',(-0.0412090881495987,-0.0444841369603323,0.013));
#672=CARTESIAN_POINT('',(-0.0412090881495987,-0.000239761960332309,0.013));
#673=CARTESIAN_POINT('',(-0.0412090881495987,-0.000239761960332309,0.));
#674=CARTESIAN_POINT('',(-0.0362090881495987,-0.0444841369603323,0.003));
#675=CARTESIAN_POINT('',(-0.0362090881495987,-0.0444841369603323,0.));
#676=CARTESIAN_POINT('',(-0.0362090881495987,-0.0494841369603323,0.));
#677=CARTESIAN_POINT('',(-0.0362090881495987,-0.0494841369603323,0.003));
#678=CARTESIAN_POINT('',(-0.0362090881495987,-0.0494841369603323,0.013));
#679=CARTESIAN_POINT('',(-0.0362090881495987,-0.0444841369603323,0.013));
#680=CARTESIAN_POINT('',(-5.28381495987045E-5,-0.0494841369603323,0.003));
#681=CARTESIAN_POINT('',(-5.28381495987045E-5,-0.0494841369603323,0.));
#682=CARTESIAN_POINT('',(0.0361034118504013,-0.0494841369603323,0.));
#683=CARTESIAN_POINT('',(0.0361034118504013,-0.0494841369603323,0.003));
#684=CARTESIAN_POINT('',(0.0361034118504013,-0.0494841369603323,0.013));
#685=CARTESIAN_POINT('',(-5.28381495987045E-5,-0.0494841369603323,0.013));
#686=CARTESIAN_POINT('',(-0.0354768551025651,0.0432723799926341,0.003));
#687=CARTESIAN_POINT('',(-0.0354768551025651,0.0432723799926341,0.));
#688=CARTESIAN_POINT('',(-0.0340268551025651,0.0432723799926341,0.));
#689=CARTESIAN_POINT('',(-0.0354768551025651,0.0432723799926341,0.013));
#690=CARTESIAN_POINT('',(-0.0340268551025651,0.0432723799926341,0.013));
#691=CARTESIAN_POINT('',(0.0353711788033677,0.0432723799926341,0.003));
#692=CARTESIAN_POINT('',(0.0353711788033677,0.0432723799926341,0.));
#693=CARTESIAN_POINT('',(0.0368211788033677,0.0432723799926341,0.));
#694=CARTESIAN_POINT('',(0.0353711788033677,0.0432723799926341,0.013));
#695=CARTESIAN_POINT('',(0.0368211788033677,0.0432723799926341,0.013));
#696=CARTESIAN_POINT('',(-0.0354768551025651,-0.0437519039132986,0.003));
#697=CARTESIAN_POINT('',(-0.0354768551025651,-0.0437519039132986,0.));
#698=CARTESIAN_POINT('',(-0.0340268551025651,-0.0437519039132986,0.));
#699=CARTESIAN_POINT('',(-0.0354768551025651,-0.0437519039132986,0.013));
#700=CARTESIAN_POINT('',(-0.0340268551025651,-0.0437519039132986,0.013));
#701=CARTESIAN_POINT('',(0.0353711788033677,-0.0437519039132986,0.003));
#702=CARTESIAN_POINT('',(0.0353711788033677,-0.0437519039132986,0.));
#703=CARTESIAN_POINT('',(0.0368211788033677,-0.0437519039132986,0.));
#704=CARTESIAN_POINT('',(0.0353711788033677,-0.0437519039132986,0.013));
#705=CARTESIAN_POINT('',(0.0368211788033677,-0.0437519039132986,0.013));
#706=CARTESIAN_POINT('',(0.0361034118504013,-0.0444841369603323,0.003));
#707=CARTESIAN_POINT('',(0.0361034118504013,-0.0444841369603323,0.));
#708=CARTESIAN_POINT('',(0.0361034118504013,-0.0444841369603323,0.013));
#709=CARTESIAN_POINT('',(-5.2838149598701E-5,-0.000239761960332298,0.));
#710=CARTESIAN_POINT('',(-0.0312090881495987,-0.000239761960332309,0.));
#711=CARTESIAN_POINT('',(-0.0312090881495987,0.0335046130396677,0.));
#712=CARTESIAN_POINT('',(-0.0312090881495987,0.0215046130396677,0.));
#713=CARTESIAN_POINT('',(-0.0312070881495987,0.0335046130396677,0.));
#714=CARTESIAN_POINT('',(-0.0312070881495987,0.0215046130396677,0.));
#715=CARTESIAN_POINT('',(0.0311034118504013,-0.000239761960332294,0.013));
#716=CARTESIAN_POINT('',(0.0311034118504013,-0.000239761960332298,0.003));
#717=CARTESIAN_POINT('',(0.0311034118504013,-0.0394841369603323,0.003));
#718=CARTESIAN_POINT('',(0.0311034118504013,0.0390046130396677,0.003));
#719=CARTESIAN_POINT('',(0.0311034118504013,-0.0394841369603323,0.013));
#720=CARTESIAN_POINT('',(0.0311034118504013,-0.0394841369603323,0.013));
#721=CARTESIAN_POINT('',(0.0311034118504013,-0.000239761960332294,0.013));
#722=CARTESIAN_POINT('',(0.0311034118504013,0.0390046130396677,0.013));
#723=CARTESIAN_POINT('',(0.0311034118504013,0.0390046130396677,0.013));
#724=CARTESIAN_POINT('',(-5.2838149598701E-5,-0.0394841369603323,0.013));
#725=CARTESIAN_POINT('',(-5.2838149598701E-5,-0.0394841369603323,0.003));
#726=CARTESIAN_POINT('',(-0.0312090881495987,-0.0394841369603323,0.003));
#727=CARTESIAN_POINT('',(-0.0312090881495987,-0.0394841369603323,0.013));
#728=CARTESIAN_POINT('',(-0.0312090881495987,-0.0394841369603323,0.013));
#729=CARTESIAN_POINT('',(-5.2838149598701E-5,-0.0394841369603323,0.013));
#730=CARTESIAN_POINT('',(-0.0312090881495987,-0.000239761960332309,0.013));
#731=CARTESIAN_POINT('',(-0.0312090881495987,-0.000239761960332298,0.003));
#732=CARTESIAN_POINT('',(-0.0312090881495987,0.0215046130396677,0.003));
#733=CARTESIAN_POINT('',(-0.0312090881495987,0.0215046130396677,0.004));
#734=CARTESIAN_POINT('',(-0.0312090881495987,0.0215046130396677,0.008));
#735=CARTESIAN_POINT('',(-0.0312090881495987,0.0275046130396677,0.008));
#736=CARTESIAN_POINT('',(-0.0312090881495987,0.0335046130396677,0.008));
#737=CARTESIAN_POINT('',(-0.0312090881495987,0.0335046130396677,0.004));
#738=CARTESIAN_POINT('',(-0.0312090881495987,0.0335046130396677,0.003));
#739=CARTESIAN_POINT('',(-0.0312090881495987,-0.000239761960332298,0.003));
#740=CARTESIAN_POINT('',(-0.0312090881495987,0.0390046130396677,0.003));
#741=CARTESIAN_POINT('',(-0.0312090881495987,0.0390046130396677,0.013));
#742=CARTESIAN_POINT('',(-0.0312090881495987,0.0390046130396677,0.013));
#743=CARTESIAN_POINT('',(-0.0312090881495987,-0.000239761960332309,0.013));
#744=CARTESIAN_POINT('',(-5.28381495986975E-5,0.0390046130396677,0.013));
#745=CARTESIAN_POINT('',(-5.2838149598701E-5,0.0390046130396677,0.003));
#746=CARTESIAN_POINT('',(-5.28381495986975E-5,0.0390046130396677,0.013));
#747=CARTESIAN_POINT('',(-5.2838149598701E-5,-0.000239761960332298,0.013));
#748=CARTESIAN_POINT('',(-5.2838149598701E-5,-0.000239761960332298,0.003));
#749=CARTESIAN_POINT('',(-0.0312090881495987,-0.000239761960332298,0.003));
#750=CARTESIAN_POINT('',(-0.0312090881495987,-0.000239761960332309,0.013));
#751=CARTESIAN_POINT('',(-0.0312090881495987,0.0335046130396677,0.004));
#752=CARTESIAN_POINT('',(-0.0312090881495987,0.0215046130396677,0.004));
#753=CARTESIAN_POINT('',(-0.0312070881495987,0.0215046130396677,0.004));
#754=CARTESIAN_POINT('',(-0.0312070881495987,0.0215046130396677,0.008));
#755=CARTESIAN_POINT('',(-0.0312070881495987,0.0275046130396677,0.008));
#756=CARTESIAN_POINT('',(-0.0312070881495987,0.0335046130396677,0.008));
#757=CARTESIAN_POINT('',(-0.0312070881495987,0.0335046130396677,0.004));
#758=MECHANICAL_DESIGN_GEOMETRIC_PRESENTATION_REPRESENTATION('',(#457),
#759);
#759=(
GEOMETRIC_REPRESENTATION_CONTEXT(3)
GLOBAL_UNCERTAINTY_ASSIGNED_CONTEXT((#760))
GLOBAL_UNIT_ASSIGNED_CONTEXT((#763,#762,#761))
REPRESENTATION_CONTEXT('Part 1','TOP_LEVEL_ASSEMBLY_PART')
);
#760=UNCERTAINTY_MEASURE_WITH_UNIT(LENGTH_MEASURE(1.E-8),#763,
'DISTANCE_ACCURACY_VALUE','Maximum Tolerance applied to model');
#761=(
NAMED_UNIT(*)
SI_UNIT($,.STERADIAN.)
SOLID_ANGLE_UNIT()
);
#762=(
NAMED_UNIT(*)
PLANE_ANGLE_UNIT()
SI_UNIT($,.RADIAN.)
);
#763=(
LENGTH_UNIT()
NAMED_UNIT(*)
SI_UNIT($,.METRE.)
);
#764=PRODUCT_DEFINITION_SHAPE('','',#765);
#765=PRODUCT_DEFINITION('','',#767,#766);
#766=PRODUCT_DEFINITION_CONTEXT('',#773,'design');
#767=PRODUCT_DEFINITION_FORMATION_WITH_SPECIFIED_SOURCE('','',#769,
 .NOT_KNOWN.);
#768=PRODUCT_RELATED_PRODUCT_CATEGORY('','',(#769));
#769=PRODUCT('Part 1','Part 1','Part 1',(#771));
#770=PRODUCT_CATEGORY('','');
#771=PRODUCT_CONTEXT('',#773,'mechanical');
#772=APPLICATION_PROTOCOL_DEFINITION('international standard',
'ap242_managed_model_based_3d_engineering',2020,#773);
#773=APPLICATION_CONTEXT('managed model based 3d engineering');
ENDSEC;
END-ISO-10303-21;
